<svg width="750" height="420" xmlns="http://www.w3.org/2000/svg" style="background-color: #1E1E24; font-family: -apple-system, BlinkMacSystemFont, 'Segoe UI', Roboto, Helvetica, Arial, sans-serif;">
    <defs>
      <marker id="arrow" viewBox="0 0 10 10" refX="10" refY="5" markerWidth="6" markerHeight="6" orient="auto-start-reverse">
        <path d="M 0 0 L 10 5 L 0 10 z" fill="#8F9CAE" />
      </marker>
      <marker id="generalization" viewBox="0 0 10 10" refX="10" refY="5" markerWidth="8" markerHeight="8" orient="auto-start-reverse">
        <path d="M 0 0 L 10 5 L 0 10 z" fill="none" stroke="#8F9CAE" stroke-width="1.5" />
      </marker>
      <marker id="composition" viewBox="0 0 12 12" refX="12" refY="6" markerWidth="8" markerHeight="8" orient="auto-start-reverse">
        <path d="M 0 6 L 6 0 L 12 6 L 6 12 z" fill="#8F9CAE" />
      </marker>
      <marker id="aggregation" viewBox="0 0 12 12" refX="12" refY="6" markerWidth="8" markerHeight="8" orient="auto-start-reverse">
        <path d="M 0 6 L 6 0 L 12 6 L 6 12 z" fill="none" stroke="#8F9CAE" stroke-width="1.5" />
      </marker>
    </defs>
    <text x="30" y="40" fill="#F8FAFC" font-size="20" font-weight="bold">Builder Design Pattern</text><rect x="40" y="100" width="220" height="150" rx="8" ry="8" fill="#0F172A" stroke="#2563EB" stroke-width="2" />
<path d="M 41 108 Q 41 101 48 101 L 252 101 Q 259 101 259 108 L 259 135 L 41 135 Z" fill="#1E3A8A" />
<text x="150.0" y="122" fill="#F1F5F9" font-size="12" font-weight="bold" text-anchor="middle">Pizza</text>
<line x1="40" y1="135" x2="260" y2="135" stroke="#2563EB" stroke-width="1" />
<text x="50" y="150" fill="#94A3B8" font-size="10" font-family="monospace">- crust: String</text>
<text x="50" y="166" fill="#94A3B8" font-size="10" font-family="monospace">- sauce: String</text>
<text x="50" y="182" fill="#94A3B8" font-size="10" font-family="monospace">- toppings: List&lt;String&gt;</text>
<line x1="40" y1="198" x2="260" y2="198" stroke="#2563EB" stroke-width="1" stroke-dasharray="3,3" />
<text x="50" y="213" fill="#CBD5E1" font-size="10" font-family="monospace">+ getCrust()</text>
<text x="50" y="229" fill="#CBD5E1" font-size="10" font-family="monospace">+ getSauce()</text>
<rect x="320" y="80" width="220" height="190" rx="8" ry="8" fill="#0F172A" stroke="#2563EB" stroke-width="2" />
<path d="M 321 88 Q 321 81 328 81 L 532 81 Q 539 81 539 88 L 539 115 L 321 115 Z" fill="#1E3A8A" />
<text x="430.0" y="102" fill="#F1F5F9" font-size="12" font-weight="bold" text-anchor="middle">PizzaBuilder</text>
<line x1="320" y1="115" x2="540" y2="115" stroke="#2563EB" stroke-width="1" />
<text x="330" y="130" fill="#94A3B8" font-size="10" font-family="monospace">- crust: String</text>
<text x="330" y="146" fill="#94A3B8" font-size="10" font-family="monospace">- sauce: String</text>
<text x="330" y="162" fill="#94A3B8" font-size="10" font-family="monospace">- toppings: List&lt;String&gt;</text>
<line x1="320" y1="178" x2="540" y2="178" stroke="#2563EB" stroke-width="1" stroke-dasharray="3,3" />
<text x="330" y="193" fill="#CBD5E1" font-size="10" font-family="monospace">+ crust(String)</text>
<text x="330" y="209" fill="#CBD5E1" font-size="10" font-family="monospace">+ sauce(String)</text>
<text x="330" y="225" fill="#CBD5E1" font-size="10" font-family="monospace">+ topping(String)</text>
<text x="330" y="241" fill="#CBD5E1" font-size="10" font-family="monospace">+ build(): Pizza</text>
<rect x="600" y="100" width="130" height="80" rx="8" ry="8" fill="#0F172A" stroke="#2563EB" stroke-width="2" />
<path d="M 601 108 Q 601 101 608 101 L 722 101 Q 729 101 729 108 L 729 135 L 601 135 Z" fill="#1E3A8A" />
<text x="665.0" y="122" fill="#F1F5F9" font-size="12" font-weight="bold" text-anchor="middle">BuilderDemo</text>
<line x1="600" y1="135" x2="730" y2="135" stroke="#2563EB" stroke-width="1" />
<line x1="600" y1="150" x2="730" y2="150" stroke="#2563EB" stroke-width="1" stroke-dasharray="3,3" />
<text x="610" y="165" fill="#CBD5E1" font-size="10" font-family="monospace">+ main(args: String[])</text>
<line x1="320" y1="175" x2="260" y2="175" stroke="#64748B" stroke-width="1.5" marker-end="url(#arrow)"  />
<text x="290.0" y="169.0" fill="#94A3B8" font-size="9" text-anchor="middle">creates</text>
<line x1="600" y1="140" x2="540" y2="140" stroke="#64748B" stroke-width="1.5" marker-end="url(#arrow)"  />
<text x="570.0" y="134.0" fill="#94A3B8" font-size="9" text-anchor="middle">uses</text></svg>