<svg width="850" height="500" xmlns="http://www.w3.org/2000/svg" style="background-color: #1E1E24; font-family: -apple-system, BlinkMacSystemFont, 'Segoe UI', Roboto, Helvetica, Arial, sans-serif;">
    <defs>
      <marker id="arrow" viewBox="0 0 10 10" refX="10" refY="5" markerWidth="6" markerHeight="6" orient="auto-start-reverse">
        <path d="M 0 0 L 10 5 L 0 10 z" fill="#8F9CAE" />
      </marker>
      <marker id="generalization" viewBox="0 0 10 10" refX="10" refY="5" markerWidth="8" markerHeight="8" orient="auto-start-reverse">
        <path d="M 0 0 L 10 5 L 0 10 z" fill="none" stroke="#8F9CAE" stroke-width="1.5" />
      </marker>
      <marker id="composition" viewBox="0 0 12 12" refX="12" refY="6" markerWidth="8" markerHeight="8" orient="auto-start-reverse">
        <path d="M 0 6 L 6 0 L 12 6 L 6 12 z" fill="#8F9CAE" />
      </marker>
      <marker id="aggregation" viewBox="0 0 12 12" refX="12" refY="6" markerWidth="8" markerHeight="8" orient="auto-start-reverse">
        <path d="M 0 6 L 6 0 L 12 6 L 6 12 z" fill="none" stroke="#8F9CAE" stroke-width="1.5" />
      </marker>
    </defs>
    <text x="30" y="40" fill="#F8FAFC" font-size="20" font-weight="bold">Prototype Design Pattern</text><rect x="250" y="30" width="180" height="80" rx="8" ry="8" fill="#0F172A" stroke="#3B82F6" stroke-width="2" />
<path d="M 251 38 Q 251 31 258 31 L 422 31 Q 429 31 429 38 L 429 65 L 251 65 Z" fill="#1D4ED8" />
<text x="340.0" y="44" fill="#60A5FA" font-size="9" font-weight="bold" text-anchor="middle">&lt;&lt;interface&gt;&gt;</text>
<text x="340.0" y="58" fill="#F1F5F9" font-size="12" font-weight="bold" text-anchor="middle">Prototype</text>
<line x1="250" y1="65" x2="430" y2="65" stroke="#3B82F6" stroke-width="1" />
<line x1="250" y1="80" x2="430" y2="80" stroke="#3B82F6" stroke-width="1" stroke-dasharray="3,3" />
<text x="260" y="95" fill="#CBD5E1" font-size="10" font-family="monospace">+ clone(): Prototype</text>
<rect x="250" y="160" width="180" height="110" rx="8" ry="8" fill="#0F172A" stroke="#64748B" stroke-width="2" />
<path d="M 251 168 Q 251 161 258 161 L 422 161 Q 429 161 429 168 L 429 195 L 251 195 Z" fill="#1E293B" />
<text x="340.0" y="174" fill="#94A3B8" font-size="9" font-weight="bold" text-anchor="middle">&lt;&lt;abstract&gt;&gt;</text>
<text x="340.0" y="188" fill="#F1F5F9" font-size="12" font-weight="bold" font-style="italic" text-anchor="middle">Shape</text>
<line x1="250" y1="195" x2="430" y2="195" stroke="#64748B" stroke-width="1" />
<text x="260" y="210" fill="#94A3B8" font-size="10" font-family="monospace"># id: String</text>
<text x="260" y="226" fill="#94A3B8" font-size="10" font-family="monospace"># type: String</text>
<line x1="250" y1="242" x2="430" y2="242" stroke="#64748B" stroke-width="1" stroke-dasharray="3,3" />
<text x="260" y="257" fill="#CBD5E1" font-size="10" font-family="monospace">+ clone(): Prototype</text>
<rect x="50" y="350" width="170" height="100" rx="8" ry="8" fill="#0F172A" stroke="#2563EB" stroke-width="2" />
<path d="M 51 358 Q 51 351 58 351 L 212 351 Q 219 351 219 358 L 219 385 L 51 385 Z" fill="#1E3A8A" />
<text x="135.0" y="372" fill="#F1F5F9" font-size="12" font-weight="bold" text-anchor="middle">Circle</text>
<line x1="50" y1="385" x2="220" y2="385" stroke="#2563EB" stroke-width="1" />
<text x="60" y="400" fill="#94A3B8" font-size="10" font-family="monospace">- radius: int</text>
<line x1="50" y1="416" x2="220" y2="416" stroke="#2563EB" stroke-width="1" stroke-dasharray="3,3" />
<rect x="255" y="350" width="170" height="100" rx="8" ry="8" fill="#0F172A" stroke="#2563EB" stroke-width="2" />
<path d="M 256 358 Q 256 351 263 351 L 417 351 Q 424 351 424 358 L 424 385 L 256 385 Z" fill="#1E3A8A" />
<text x="340.0" y="372" fill="#F1F5F9" font-size="12" font-weight="bold" text-anchor="middle">Rectangle</text>
<line x1="255" y1="385" x2="425" y2="385" stroke="#2563EB" stroke-width="1" />
<text x="265" y="400" fill="#94A3B8" font-size="10" font-family="monospace">- width: int</text>
<text x="265" y="416" fill="#94A3B8" font-size="10" font-family="monospace">- height: int</text>
<line x1="255" y1="432" x2="425" y2="432" stroke="#2563EB" stroke-width="1" stroke-dasharray="3,3" />
<rect x="455" y="350" width="180" height="110" rx="8" ry="8" fill="#0F172A" stroke="#2563EB" stroke-width="2" />
<path d="M 456 358 Q 456 351 463 351 L 627 351 Q 634 351 634 358 L 634 385 L 456 385 Z" fill="#1E3A8A" />
<text x="545.0" y="372" fill="#F1F5F9" font-size="12" font-weight="bold" text-anchor="middle">ShapeGroup</text>
<line x1="455" y1="385" x2="635" y2="385" stroke="#2563EB" stroke-width="1" />
<text x="465" y="400" fill="#94A3B8" font-size="10" font-family="monospace">- shapes: List&lt;Shape&gt;</text>
<line x1="455" y1="416" x2="635" y2="416" stroke="#2563EB" stroke-width="1" stroke-dasharray="3,3" />
<text x="465" y="431" fill="#CBD5E1" font-size="10" font-family="monospace">+ clone()</text>
<rect x="540" y="160" width="260" height="110" rx="8" ry="8" fill="#0F172A" stroke="#2563EB" stroke-width="2" />
<path d="M 541 168 Q 541 161 548 161 L 792 161 Q 799 161 799 168 L 799 195 L 541 195 Z" fill="#1E3A8A" />
<text x="670.0" y="182" fill="#F1F5F9" font-size="12" font-weight="bold" text-anchor="middle">ShapeRegistry</text>
<line x1="540" y1="195" x2="800" y2="195" stroke="#2563EB" stroke-width="1" />
<text x="550" y="210" fill="#94A3B8" font-size="10" font-family="monospace">- registry: Map</text>
<line x1="540" y1="226" x2="800" y2="226" stroke="#2563EB" stroke-width="1" stroke-dasharray="3,3" />
<text x="550" y="241" fill="#CBD5E1" font-size="10" font-family="monospace">+ get(key): Shape</text>
<text x="550" y="257" fill="#CBD5E1" font-size="10" font-family="monospace">+ put(key, Shape)</text>
<rect x="30" y="160" width="180" height="80" rx="8" ry="8" fill="#0F172A" stroke="#2563EB" stroke-width="2" />
<path d="M 31 168 Q 31 161 38 161 L 202 161 Q 209 161 209 168 L 209 195 L 31 195 Z" fill="#1E3A8A" />
<text x="120.0" y="182" fill="#F1F5F9" font-size="12" font-weight="bold" text-anchor="middle">PrototypeDemo</text>
<line x1="30" y1="195" x2="210" y2="195" stroke="#2563EB" stroke-width="1" />
<line x1="30" y1="210" x2="210" y2="210" stroke="#2563EB" stroke-width="1" stroke-dasharray="3,3" />
<text x="40" y="225" fill="#CBD5E1" font-size="10" font-family="monospace">+ main(args: String[])</text>
<line x1="340" y1="160" x2="340" y2="110" stroke="#64748B" stroke-width="1.5" marker-end="url(#generalization)" stroke-dasharray="4,4" />
<text x="340.0" y="129.0" fill="#94A3B8" font-size="9" text-anchor="middle">implements</text>
<line x1="135" y1="350" x2="300" y2="270" stroke="#64748B" stroke-width="1.5" marker-end="url(#generalization)"  />
<text x="217.5" y="304.0" fill="#94A3B8" font-size="9" text-anchor="middle">extends</text>
<line x1="340" y1="350" x2="340" y2="270" stroke="#64748B" stroke-width="1.5" marker-end="url(#generalization)"  />
<text x="340.0" y="304.0" fill="#94A3B8" font-size="9" text-anchor="middle">extends</text>
<line x1="545" y1="350" x2="380" y2="270" stroke="#64748B" stroke-width="1.5" marker-end="url(#generalization)"  />
<text x="462.5" y="304.0" fill="#94A3B8" font-size="9" text-anchor="middle">extends</text>
<line x1="540" y1="215" x2="430" y2="215" stroke="#64748B" stroke-width="1.5" marker-end="url(#arrow)"  />
<text x="485.0" y="209.0" fill="#94A3B8" font-size="9" text-anchor="middle">clones</text>
<line x1="210" y1="200" x2="540" y2="200" stroke="#64748B" stroke-width="1.5" marker-end="url(#arrow)"  /></svg>