<svg width="800" height="500" xmlns="http://www.w3.org/2000/svg" style="background-color: #1E1E24; font-family: -apple-system, BlinkMacSystemFont, 'Segoe UI', Roboto, Helvetica, Arial, sans-serif;">
    <defs>
      <marker id="arrow" viewBox="0 0 10 10" refX="10" refY="5" markerWidth="6" markerHeight="6" orient="auto-start-reverse">
        <path d="M 0 0 L 10 5 L 0 10 z" fill="#8F9CAE" />
      </marker>
      <marker id="generalization" viewBox="0 0 10 10" refX="10" refY="5" markerWidth="8" markerHeight="8" orient="auto-start-reverse">
        <path d="M 0 0 L 10 5 L 0 10 z" fill="none" stroke="#8F9CAE" stroke-width="1.5" />
      </marker>
      <marker id="composition" viewBox="0 0 12 12" refX="12" refY="6" markerWidth="8" markerHeight="8" orient="auto-start-reverse">
        <path d="M 0 6 L 6 0 L 12 6 L 6 12 z" fill="#8F9CAE" />
      </marker>
      <marker id="aggregation" viewBox="0 0 12 12" refX="12" refY="6" markerWidth="8" markerHeight="8" orient="auto-start-reverse">
        <path d="M 0 6 L 6 0 L 12 6 L 6 12 z" fill="none" stroke="#8F9CAE" stroke-width="1.5" />
      </marker>
    </defs>
    <text x="30" y="40" fill="#F8FAFC" font-size="20" font-weight="bold">Adapter Design Pattern</text><rect x="30" y="200" width="180" height="80" rx="8" ry="8" fill="#0F172A" stroke="#2563EB" stroke-width="2" />
<path d="M 31 208 Q 31 201 38 201 L 202 201 Q 209 201 209 208 L 209 235 L 31 235 Z" fill="#1E3A8A" />
<text x="120.0" y="222" fill="#F1F5F9" font-size="12" font-weight="bold" text-anchor="middle">AdapterDemo</text>
<line x1="30" y1="235" x2="210" y2="235" stroke="#2563EB" stroke-width="1" />
<line x1="30" y1="250" x2="210" y2="250" stroke="#2563EB" stroke-width="1" stroke-dasharray="3,3" />
<text x="40" y="265" fill="#CBD5E1" font-size="10" font-family="monospace">+ main(args: String[])</text>
<rect x="300" y="200" width="200" height="80" rx="8" ry="8" fill="#0F172A" stroke="#3B82F6" stroke-width="2" />
<path d="M 301 208 Q 301 201 308 201 L 492 201 Q 499 201 499 208 L 499 235 L 301 235 Z" fill="#1D4ED8" />
<text x="400.0" y="214" fill="#60A5FA" font-size="9" font-weight="bold" text-anchor="middle">&lt;&lt;interface&gt;&gt;</text>
<text x="400.0" y="228" fill="#F1F5F9" font-size="12" font-weight="bold" text-anchor="middle">PaymentGateway</text>
<line x1="300" y1="235" x2="500" y2="235" stroke="#3B82F6" stroke-width="1" />
<line x1="300" y1="250" x2="500" y2="250" stroke="#3B82F6" stroke-width="1" stroke-dasharray="3,3" />
<text x="310" y="265" fill="#CBD5E1" font-size="10" font-family="monospace">+ pay(amount: double)</text>
<rect x="300" y="30" width="200" height="100" rx="8" ry="8" fill="#0F172A" stroke="#2563EB" stroke-width="2" />
<path d="M 301 38 Q 301 31 308 31 L 492 31 Q 499 31 499 38 L 499 65 L 301 65 Z" fill="#1E3A8A" />
<text x="400.0" y="52" fill="#F1F5F9" font-size="12" font-weight="bold" text-anchor="middle">PayPalGateway</text>
<line x1="300" y1="65" x2="500" y2="65" stroke="#2563EB" stroke-width="1" />
<text x="310" y="80" fill="#94A3B8" font-size="10" font-family="monospace">- email: String</text>
<line x1="300" y1="96" x2="500" y2="96" stroke="#2563EB" stroke-width="1" stroke-dasharray="3,3" />
<text x="310" y="111" fill="#CBD5E1" font-size="10" font-family="monospace">+ pay(amount: double)</text>
<rect x="570" y="200" width="200" height="100" rx="8" ry="8" fill="#0F172A" stroke="#2563EB" stroke-width="2" />
<path d="M 571 208 Q 571 201 578 201 L 762 201 Q 769 201 769 208 L 769 235 L 571 235 Z" fill="#1E3A8A" />
<text x="670.0" y="222" fill="#F1F5F9" font-size="12" font-weight="bold" text-anchor="middle">StripeService</text>
<line x1="570" y1="235" x2="770" y2="235" stroke="#2563EB" stroke-width="1" />
<line x1="570" y1="250" x2="770" y2="250" stroke="#2563EB" stroke-width="1" stroke-dasharray="3,3" />
<text x="580" y="265" fill="#CBD5E1" font-size="10" font-family="monospace">+ makePayment(amount)</text>
<rect x="300" y="370" width="200" height="100" rx="8" ry="8" fill="#0F172A" stroke="#2563EB" stroke-width="2" />
<path d="M 301 378 Q 301 371 308 371 L 492 371 Q 499 371 499 378 L 499 405 L 301 405 Z" fill="#1E3A8A" />
<text x="400.0" y="392" fill="#F1F5F9" font-size="12" font-weight="bold" text-anchor="middle">StripeAdapter</text>
<line x1="300" y1="405" x2="500" y2="405" stroke="#2563EB" stroke-width="1" />
<text x="310" y="420" fill="#94A3B8" font-size="10" font-family="monospace">- stripe: StripeService</text>
<line x1="300" y1="436" x2="500" y2="436" stroke="#2563EB" stroke-width="1" stroke-dasharray="3,3" />
<text x="310" y="451" fill="#CBD5E1" font-size="10" font-family="monospace">+ pay(amount: double)</text>
<line x1="210" y1="240" x2="300" y2="240" stroke="#64748B" stroke-width="1.5" marker-end="url(#arrow)"  />
<text x="255.0" y="234.0" fill="#94A3B8" font-size="9" text-anchor="middle">uses</text>
<line x1="400" y1="130" x2="400" y2="200" stroke="#64748B" stroke-width="1.5" marker-end="url(#generalization)" stroke-dasharray="4,4" />
<text x="400.0" y="159.0" fill="#94A3B8" font-size="9" text-anchor="middle">implements</text>
<line x1="400" y1="370" x2="400" y2="280" stroke="#64748B" stroke-width="1.5" marker-end="url(#generalization)" stroke-dasharray="4,4" />
<text x="400.0" y="319.0" fill="#94A3B8" font-size="9" text-anchor="middle">implements</text>
<line x1="500" y1="420" x2="670" y2="300" stroke="#64748B" stroke-width="1.5" marker-end="url(#arrow)"  />
<text x="585.0" y="354.0" fill="#94A3B8" font-size="9" text-anchor="middle">adapts (wraps)</text></svg>